<svg xmlns="http://www.w3.org/2000/svg" height="750pt" version="1.1" viewBox="0 0 750 750" width="750pt">
<g id="surface1">
<path d="M 700 0 L 325 0 C 297.4 0 275 22.4 275 50 L 275 300 C 275 327.6 297.4 350 325 350 L 445.9 350 L 428.1 412.5 L 400 412.5 L 400 437.5 L 625 437.5 L 625 412.5 L 596.9 412.5 L 579.1 350 L 700 350 C 727.6 350 750 327.6 750 300 L 750 50 C 750 22.4 727.6 0 700 0 Z M 300 50 C 300 36.2 311.2 25 325 25 L 700 25 C 713.8 25 725 36.2 725 50 L 725 262.5 L 300 262.5 Z M 570.9 412.5 L 454.1 412.5 L 471.9 350 L 553.1 350 Z M 700 325 L 325 325 C 311.2 325 300 313.8 300 300 L 300 287.5 L 725 287.5 L 725 300 C 725 313.8 713.8 325 700 325 Z M 700 325" style="fill: rgb(100%, 100%, 100%); fill-rule: nonzero; stroke: none; fill-opacity: 1" />
<path d="M 37.5 750 L 362.5 750 C 383.2 750 400 733.2 400 712.5 L 400 675 C 400 668.1 394.4 662.5 387.5 662.5 L 362.5 662.5 L 362.5 487.5 C 362.5 466.8 345.7 450 325 450 L 75 450 C 54.3 450 37.5 466.8 37.5 487.5 L 37.5 662.5 L 12.5 662.5 C 5.6 662.5 0 668.1 0 675 L 0 712.5 C 0 733.2 16.8 750 37.5 750 Z M 62.5 487.5 C 62.5 480.6 68.1 475 75 475 L 325 475 C 331.9 475 337.5 480.6 337.5 487.5 L 337.5 662.5 L 237.5 662.5 C 234.2 662.5 231 663.8 228.7 666.2 L 219.8 675 L 180.2 675 L 171.3 666.2 C 169 663.8 165.8 662.5 162.5 662.5 L 62.5 662.5 Z M 25 687.5 L 157.3 687.5 L 166.2 696.3 C 168.5 698.7 171.7 700 175 700 L 225 700 C 228.3 700 231.5 698.7 233.8 696.3 L 242.7 687.5 L 375 687.5 L 375 712.5 C 375 719.4 369.4 725 362.5 725 L 37.5 725 C 30.6 725 25 719.4 25 712.5 Z M 25 687.5" style="fill: rgb(100%, 100%, 100%); fill-rule: nonzero; stroke: none; fill-opacity: 1" />
<path d="M 125 350 L 150 350 L 150 375 L 125 375 Z M 125 350" style="fill: rgb(100%, 100%, 100%); fill-rule: nonzero; stroke: none; fill-opacity: 1" />
<path d="M 125 300 L 150 300 L 150 325 L 125 325 Z M 125 300" style="fill: rgb(100%, 100%, 100%); fill-rule: nonzero; stroke: none; fill-opacity: 1" />
<path d="M 125 400 L 150 400 L 150 425 L 125 425 Z M 125 400" style="fill: rgb(100%, 100%, 100%); fill-rule: nonzero; stroke: none; fill-opacity: 1" />
<path d="M 125 250 L 150 250 L 150 275 L 125 275 Z M 125 250" style="fill: rgb(100%, 100%, 100%); fill-rule: nonzero; stroke: none; fill-opacity: 1" />
<path d="M 125 200 L 150 200 L 150 225 L 125 225 Z M 125 200" style="fill: rgb(100%, 100%, 100%); fill-rule: nonzero; stroke: none; fill-opacity: 1" />
<path d="M 175 200 L 200 200 L 200 225 L 175 225 Z M 175 200" style="fill: rgb(100%, 100%, 100%); fill-rule: nonzero; stroke: none; fill-opacity: 1" />
<path d="M 225 200 L 250 200 L 250 225 L 225 225 Z M 225 200" style="fill: rgb(100%, 100%, 100%); fill-rule: nonzero; stroke: none; fill-opacity: 1" />
<path d="M 575 512.5 L 600 512.5 L 600 537.5 L 575 537.5 Z M 575 512.5" style="fill: rgb(100%, 100%, 100%); fill-rule: nonzero; stroke: none; fill-opacity: 1" />
<path d="M 575 562.5 L 600 562.5 L 600 587.5 L 575 587.5 Z M 575 562.5" style="fill: rgb(100%, 100%, 100%); fill-rule: nonzero; stroke: none; fill-opacity: 1" />
<path d="M 575 462.5 L 600 462.5 L 600 487.5 L 575 487.5 Z M 575 462.5" style="fill: rgb(100%, 100%, 100%); fill-rule: nonzero; stroke: none; fill-opacity: 1" />
<path d="M 575 612.5 L 600 612.5 L 600 637.5 L 575 637.5 Z M 575 612.5" style="fill: rgb(100%, 100%, 100%); fill-rule: nonzero; stroke: none; fill-opacity: 1" />
<path d="M 575 662.5 L 600 662.5 L 600 687.5 L 575 687.5 Z M 575 662.5" style="fill: rgb(100%, 100%, 100%); fill-rule: nonzero; stroke: none; fill-opacity: 1" />
<path d="M 525 662.5 L 550 662.5 L 550 687.5 L 525 687.5 Z M 525 662.5" style="fill: rgb(100%, 100%, 100%); fill-rule: nonzero; stroke: none; fill-opacity: 1" />
<path d="M 475 662.5 L 500 662.5 L 500 687.5 L 475 687.5 Z M 475 662.5" style="fill: rgb(100%, 100%, 100%); fill-rule: nonzero; stroke: none; fill-opacity: 1" />
<path d="M 425 662.5 L 450 662.5 L 450 687.5 L 425 687.5 Z M 425 662.5" style="fill: rgb(100%, 100%, 100%); fill-rule: nonzero; stroke: none; fill-opacity: 1" />
<path d="M 506.4 84.7 C 516.3 84.7 526.1 87.3 534.6 92.2 C 540 95.3 546.7 94.1 550.6 89.3 C 554.5 84.6 554.3 77.7 550.2 73.1 L 534.6 54.5 L 525.6 62 C 501.3 56.2 475.7 61.8 456.1 77.2 C 436.4 92.7 425 116.3 425 141.3 C 425 153.8 427.9 166.3 433.5 177.5 L 455.9 166.4 C 447.2 148.9 448.2 128.1 458.5 111.5 C 468.8 94.9 486.9 84.8 506.4 84.7 Z M 506.4 84.7" style="fill: rgb(100%, 100%, 100%); fill-rule: nonzero; stroke: none; fill-opacity: 1" />
<path d="M 556.6 115 C 560.5 122.8 562.5 131.4 562.5 140.2 C 562.5 160.3 551.7 179 534.3 189.1 C 516.8 199.1 495.3 199.1 477.9 189.1 C 472.5 186 465.8 187.2 461.9 192 C 458 196.8 458.2 203.6 462.3 208.2 L 476.8 231.5 L 494.5 220.8 C 517.8 224.1 541.5 217.2 559.4 201.7 C 577.2 186.3 587.5 163.8 587.5 140.2 C 587.5 127.6 584.6 115.2 579 103.9 Z M 556.6 115" style="fill: rgb(100%, 100%, 100%); fill-rule: nonzero; stroke: none; fill-opacity: 1" />
<path d="M 162.5 575 C 162.5 563.2 168 552.1 177.4 545 C 186.8 537.9 199 535.7 210.4 538.9 L 217.2 514.9 C 190.5 507.3 162 518.1 147.2 541.6 C 132.3 565.1 134.8 595.5 153.1 616.3 L 171.9 599.8 C 165.8 592.9 162.5 584.1 162.5 575 Z M 162.5 575" style="fill: rgb(100%, 100%, 100%); fill-rule: nonzero; stroke: none; fill-opacity: 1" />
<path d="M 200 612.5 C 195.7 612.5 191.4 611.8 187.3 610.3 L 178.8 633.8 C 205.6 643.4 235.6 633.7 251.7 610.1 C 267.7 586.5 265.7 555 246.8 533.6 L 228.1 550.2 C 237.9 561.2 240.3 577 234.2 590.4 C 228.1 603.9 214.8 612.5 200 612.5 Z M 200 612.5" style="fill: rgb(100%, 100%, 100%); fill-rule: nonzero; stroke: none; fill-opacity: 1" />
</g>
    <rect fill="rgb(255, 255, 255)" height="0" width="0" x="485" y="30"/>
</svg>