<?xml version="1.0" encoding="iso-8859-1"?>
<!-- Generator: Adobe Illustrator 22.1.0, SVG Export Plug-In . SVG Version: 6.00 Build 0)  -->
<svg xmlns="http://www.w3.org/2000/svg" xmlns:xlink="http://www.w3.org/1999/xlink" version="1.1" id="Layer_1" x="0px" y="0px" viewBox="0 0 64 64" style="enable-background:new 0 0 64 64;" xml:space="preserve" width="96px" height="96px">
<linearGradient id="SVGID_1__104145" gradientUnits="userSpaceOnUse" x1="15.5546" y1="8" x2="15.5546" y2="28" spreadMethod="reflect">
	<stop offset="0" style="stop-color:#6DC7FF"/>
	<stop offset="1" style="stop-color:#E6ABFF"/>
</linearGradient>
<polygon style="fill:url(#SVGID_1__104145);" points="16.045,8 8.682,28 22.427,28 "/>
<linearGradient id="SVGID_2__104145" gradientUnits="userSpaceOnUse" x1="48.4454" y1="8" x2="48.4454" y2="28" spreadMethod="reflect">
	<stop offset="0" style="stop-color:#6DC7FF"/>
	<stop offset="1" style="stop-color:#E6ABFF"/>
</linearGradient>
<polygon style="fill:url(#SVGID_2__104145);" points="47.955,8 41.573,28 55.318,28 "/>
<linearGradient id="SVGID_3__104145" gradientUnits="userSpaceOnUse" x1="32" y1="28" x2="32" y2="58" spreadMethod="reflect">
	<stop offset="0" style="stop-color:#6DC7FF"/>
	<stop offset="1" style="stop-color:#E6ABFF"/>
</linearGradient>
<polygon style="fill:url(#SVGID_3__104145);" points="22.427,28 32,58 41.573,28 "/>
<linearGradient id="SVGID_4__104145" gradientUnits="userSpaceOnUse" x1="18.5001" y1="7" x2="18.5001" y2="59.2356" spreadMethod="reflect">
	<stop offset="0" style="stop-color:#1A6DFF"/>
	<stop offset="1" style="stop-color:#C822FF"/>
</linearGradient>
<path style="fill:url(#SVGID_4__104145);" d="M32,59c-0.209,0-0.419-0.065-0.596-0.196l-27-20c-0.356-0.265-0.496-0.732-0.343-1.149  l11.046-30c0.147-0.399,0.504-0.632,0.96-0.654c0.428,0.01,0.802,0.289,0.932,0.696l15.954,50c0.132,0.413-0.019,0.864-0.371,1.117  C32.408,58.938,32.204,59,32,59z M6.197,37.643l23.908,17.71L15.979,11.078L6.197,37.643z"/>
<linearGradient id="SVGID_5__104145" gradientUnits="userSpaceOnUse" x1="45.4999" y1="7" x2="45.4999" y2="59.2356" spreadMethod="reflect">
	<stop offset="0" style="stop-color:#1A6DFF"/>
	<stop offset="1" style="stop-color:#C822FF"/>
</linearGradient>
<path style="fill:url(#SVGID_5__104145);" d="M32,59c-0.204,0-0.408-0.063-0.582-0.187c-0.353-0.253-0.503-0.704-0.371-1.117l15.954-50  C47.131,7.289,47.505,7.01,47.933,7c0.391,0.024,0.813,0.255,0.96,0.654l11.046,30c0.153,0.417,0.014,0.885-0.343,1.149l-27,20  C32.419,58.935,32.209,59,32,59z M48.021,11.078L33.895,55.353l23.908-17.71L48.021,11.078z"/>
<linearGradient id="SVGID_6__104145" gradientUnits="userSpaceOnUse" x1="32" y1="6.9538" x2="32" y2="59.1894" spreadMethod="reflect">
	<stop offset="0" style="stop-color:#1A6DFF"/>
	<stop offset="1" style="stop-color:#C822FF"/>
</linearGradient>
<path style="fill:url(#SVGID_6__104145);" d="M32,59c-0.309,0-0.601-0.143-0.789-0.387l-23.318-30c-0.234-0.301-0.277-0.71-0.109-1.053  S8.3,27,8.682,27h46.637c0.382,0,0.73,0.218,0.898,0.561s0.125,0.752-0.109,1.053l-23.318,30C32.601,58.857,32.309,59,32,59z   M10.726,29L32,56.37L53.274,29H10.726z"/>
</svg>
