<?xml version="1.0" encoding="iso-8859-1"?>
<!DOCTYPE svg PUBLIC "-//W3C//DTD SVG 1.1//EN" "http://www.w3.org/Graphics/SVG/1.1/DTD/svg11.dtd">
<svg version="1.1" id="Capa_1" xmlns="http://www.w3.org/2000/svg" xmlns:xlink="http://www.w3.org/1999/xlink" x="0px" y="0px"
	 width="412.8px" height="412.8px" viewBox="0 0 412.76 412.76" style="enable-background: new 0 0 412.76 412.76">
<g>
	<path d="M 376.5 311 c -1.6 -29.2 -25 -52.6 -54.1 -54.1 v -21.7 h -6.2 v 21.7 c -29.2 1.6 -52.6 25 -54.1 54.1 h -21.5 v 6.2 h 21.5 c 1.6 29.2 25 52.6 54.1 54.1 v 21.7 h 6.2 v -21.7 c 29.2 -1.6 52.6 -25 54.1 -54.1 h 26.1 v -6.2 H 376.5 z M 316.1 365.1 c -25.7 -1.6 -46.3 -22.2 -47.9 -47.9 h 47.9 V 365.1 z M 316.1 311 h -47.9 c 1.6 -25.7 22.2 -46.3 47.9 -47.9 V 311 z M 322.4 365.1 v -47.9 h 47.9 C 368.7 343 348.1 363.6 322.4 365.1 z M 322.4 311 v -47.9 c 25.7 1.6 46.3 22.2 47.9 47.9 H 322.4 z M 291.3 90 c -0.8 -4.7 2.4 -9.1 7.1 -9.9 c 2.1 -0.3 50.6 -8.7 53.5 -50.5 c 0.3 -4.7 4.4 -8.3 9.2 -8 c 4.7 0.3 8.3 4.4 8 9.2 c -3.9 55.5 -67.3 66.2 -67.9 66.3 c -0.4 0.1 -0.9 0.1 -1.4 0.1 C 295.6 97.2 292 94.2 291.3 90 z M 32.4 30.8 c -0.3 -4.7 3.2 -8.8 8 -9.2 c 4.9 -0.3 8.8 3.3 9.2 8 c 2.9 41.8 51.4 50.2 53.5 50.5 c 4.7 0.8 7.9 5.2 7.1 9.8 c -0.7 4.2 -4.2 7.2 -8.5 7.2 c -0.5 0 -0.9 0 -1.4 -0.1 C 99.7 97 36.3 86.3 32.4 30.8 z M 330.6 162.5 c 2.4 0.1 60.9 3.1 72.7 50 c 0.6 2.2 0.2 4.5 -1 6.5 c -1.2 2 -3.1 3.4 -5.3 3.9 c -0.7 0.2 -1.4 0.3 -2.1 0.3 c -3.9 0 -7.4 -2.7 -8.3 -6.5 c -8.6 -34.4 -56.3 -37 -56.8 -37 c -2.3 -0.1 -4.4 -1.1 -6 -2.8 c -1.6 -1.7 -2.4 -3.9 -2.3 -6.2 c 0.2 -4.6 3.9 -8.2 8.5 -8.2 L 330.6 162.5 z M 73.7 179.7 c -0.5 0 -48.2 2.8 -56.8 37 c -1 3.8 -4.4 6.5 -8.3 6.5 c -0.7 0 -1.4 -0.1 -2.1 -0.3 c -2.2 -0.5 -4.1 -1.9 -5.3 -3.9 c -1.2 -2 -1.5 -4.3 -1 -6.5 c 11.7 -46.9 70.2 -49.9 72.7 -50 l 0.4 0 c 4.6 0 8.4 3.6 8.6 8.2 C 82.1 175.5 78.4 179.5 73.7 179.7 z M 160.9 49.1 c -0.2 -1.7 -0.3 -3.4 -0.3 -5.1 c 0 -22.3 18.1 -40.4 40.4 -40.4 c 22.3 0 40.4 18.1 40.4 40.4 c 0 1.7 -0.1 3.4 -0.3 5.1 c 24.3 10.7 45.2 31.1 59.3 57.8 l 1.6 3.1 l -3.1 1.6 c -26.3 13.7 -55.8 20.7 -87.4 20.7 l 0 0 c -46.8 0 -86.8 -15 -106.5 -24 l -3.4 -1.6 l 1.8 -3.3 C 117.5 78.5 137.8 59.3 160.9 49.1 z M 116 298.2 c 1.1 4.6 -1.7 9.3 -6.2 10.4 c -0.4 0.1 -46.1 12.4 -52 53 c -0.6 4.2 -4.3 7.4 -8.5 7.4 c -0.4 0 -0.8 0 -1.2 -0.1 c -4.7 -0.7 -7.9 -5 -7.3 -9.7 c 7.6 -52.3 62.5 -66.6 64.8 -67.2 c 0.7 -0.2 1.4 -0.3 2.1 -0.3 C 111.6 291.7 115 294.4 116 298.2 z M 319.2 222.1 c -1.4 0 -2.8 0.2 -4.2 0.2 c 2.6 -12 4.1 -24.5 4.1 -37.5 c 0 -22.9 -4.3 -44.9 -12.7 -65.2 l -1.4 -3.4 l -3.3 1.7 c -21.9 11.3 -57.3 17.9 -83.1 20.2 l -2.4 0.2 l -0.6 2.3 c -7 27.1 -11.2 60.3 -13.6 91.2 c -3.9 -49 -9.5 -90.6 -9.6 -91.2 l -0.4 -2.9 c -45 -4.8 -83.4 -20.4 -90.1 -23.4 l -3.2 -1.4 l -1.4 3.2 c -9.4 21 -14.3 44.9 -14.3 68.9 c 0 79.6 53 144.3 118.1 144.3 c 8.7 0 17.1 -1.2 25.2 -3.4 c 5.1 46.8 44.8 83.4 93 83.4 c 51.6 0 93.5 -42 93.5 -93.5 C 412.8 264.1 370.8 222.1 319.2 222.1 z M 319.2 403 c -48.1 0 -87.3 -39.2 -87.3 -87.3 c 0 -48.1 39.2 -87.3 87.3 -87.3 s 87.3 39.2 87.3 87.3 C 406.5 363.8 367.4 403 319.2 403 z" style="fill: #001b30"/>
</g>
<g>
</g>
<g>
</g>
<g>
</g>
<g>
</g>
<g>
</g>
<g>
</g>
<g>
</g>
<g>
</g>
<g>
</g>
<g>
</g>
<g>
</g>
<g>
</g>
<g>
</g>
<g>
</g>
<g>
</g>
</svg>
